<mxfile host="app.diagrams.net" modified="2024-03-21T22:55:05.124Z" agent="Mozilla/5.0 (Windows NT 10.0; Win64; x64) AppleWebKit/537.36 (KHTML, like Gecko) Chrome/123.0.0.0 Safari/537.36" version="24.0.7" etag="hif5UfoQNiibGf2AUSQS" type="github">
  <diagram name="第 1 页" id="cVpbqnuZjv5tUL9fKgHS">
    <mxGraphModel>
      <root>
        <mxCell id="0" />
        <mxCell id="1" parent="0" />
      </root>
    </mxGraphModel>
  </diagram>
</mxfile>
